{
  "source": "C:\\Users\\Peter\\Desktop\\stuff\\MIUN\\quantitative_research\\video_compression\\videos\\BVI-HD\\BVI-HD_CDVL_videos\\ORIG\\RockWave_1920x1080_30fps.mp4",
  "output": "C:\\Users\\Peter\\Desktop\\stuff\\MIUN\\quantitative_research\\video_compression\\compressed_videos\\BVI-HD\\av1\\8\\RockWave_1920x1080_30fps_av1.mkv",
  "codec": "av1",
  "ok": "Input #0, mov,mp4,m4a,3gp,3g2,mj2, from 'C:\\Users\\Peter\\Desktop\\stuff\\MIUN\\quantitative_research\\video_compression\\videos\\BVI-HD\\BVI-HD_CDVL_videos\\ORIG\\RockWave_1920x1080_30fps.mp4':\n  Metadata:\n    major_brand     : isom\n    minor_version   : 512\n    compatible_brands: isomiso2avc1mp41\n    encoder         : Lavf54.28.101\n  Duration: 00:00:05.00, start: 0.000000, bitrate: 303557 kb/s\n  Stream #0:0[0x1](und): Video: h264 (High 4:4:4 Predictive) (avc1 / 0x31637661), yuv420p(progressive), 1920x1080, 303553 kb/s, 30 fps, 30 tbr, 30 tbn (default)\n    Metadata:\n      handler_name    : VideoHandler\n      vendor_id       : [0][0][0][0]\n[out#0/matroska @ 0000012486e89700] Codec AVOption b:a (set bitrate (in bits/s)) has not been used for any stream. The most likely reason is either wrong type (e.g. a video option with no video streams) or that it is a private option of some decoder which was not actually used for any stream.\nStream mapping:\n  Stream #0:0 -> #0:0 (h264 (native) -> av1 (libsvtav1))\nPress [q] to stop, [?] for help\nSvt[info]: -------------------------------------------\nSvt[info]: SVT [version]:\tSVT-AV1 Encoder Lib v3.1.0-19-g6ecfe8ec\nSvt[info]: SVT [build]  :\tGCC 15.2.0\t 64 bit\nSvt[info]: LIB Build date: Aug 17 2025 11:37:13\nSvt[info]: -------------------------------------------\nSvt[info]: Level of Parallelism: 5\nSvt[info]: Number of PPCS 93\nSvt[info]: [asm level on system : up to avx2]\nSvt[info]: [asm level selected : up to avx2]\nSvt[info]: -------------------------------------------\nSvt[info]: SVT [config]: main profile\ttier (auto)\tlevel (auto)\nSvt[info]: SVT [config]: width / height / fps numerator / fps denominator \t\t: 1920 / 1080 / 30 / 1\nSvt[info]: SVT [config]: bit-depth / color format \t\t\t\t\t: 8 / YUV420\nSvt[info]: SVT [config]: preset / tune / pred struct \t\t\t\t\t: 4 / PSNR / random access\nSvt[info]: SVT [config]: gop size / mini-gop size / key-frame type \t\t\t: 161 / 16 / key frame\nSvt[info]: SVT [config]: BRC mode / target bitrate (kbps)\t\t\t\t: VBR / 8000 \nSvt[info]: SVT [config]: AQ mode / Variance Boost \t\t\t\t\t: 2 / 0\nSvt[info]: SVT [config]: sharpness / luminance-based QP bias \t\t\t\t: 0 / 0\nSvt[info]: SVT [config]: QP scale compress strength \t\t\t\t\t: 0\nSvt[info]: -------------------------------------------\nOutput #0, matroska, to 'C:\\Users\\Peter\\Desktop\\stuff\\MIUN\\quantitative_research\\video_compression\\compressed_videos\\BVI-HD\\av1\\8\\RockWave_1920x1080_30fps_av1.mkv':\n  Metadata:\n    major_brand     : isom\n    minor_version   : 512\n    compatible_brands: isomiso2avc1mp41\n    encoder         : Lavf62.3.100\n  Stream #0:0(und): Video: av1 (AV01 / 0x31305641), yuv420p(tv, progressive), 1920x1080, q=2-31, 8000 kb/s, 30 fps, 1k tbn (default)\n    Metadata:\n      encoder         : Lavc62.11.100 libsvtav1\n      handler_name    : VideoHandler\n      vendor_id       : [0][0][0][0]\n    Side data:\n      cpb: bitrate max/min/avg: 0/0/8000000 buffer size: 8000000 vbv_delay: N/A\nframe=    0 fps=0.0 q=0.0 size=       0KiB time=N/A bitrate=N/A speed=N/A elapsed=0:00:01.72    \nframe=    0 fps=0.0 q=0.0 size=       0KiB time=N/A bitrate=N/A speed=N/A elapsed=0:00:02.37    \nframe=    0 fps=0.0 q=0.0 size=       0KiB time=N/A bitrate=N/A speed=N/A elapsed=0:00:03.09    \nframe=    0 fps=0.0 q=0.0 size=       0KiB time=N/A bitrate=N/A speed=N/A elapsed=0:00:03.71    \nframe=    0 fps=0.0 q=0.0 size=       0KiB time=N/A bitrate=N/A speed=N/A elapsed=0:00:04.29    \nframe=    0 fps=0.0 q=0.0 size=       0KiB time=N/A bitrate=N/A speed=N/A elapsed=0:00:04.81    \nframe=    0 fps=0.0 q=0.0 size=       0KiB time=N/A bitrate=N/A speed=N/A elapsed=0:00:05.35    \nframe=    1 fps=0.2 q=33.0 size=       1KiB time=00:00:00.00 bitrate=N/A speed=   0x elapsed=0:00:05.89    \nframe=    1 fps=0.2 q=33.0 size=       1KiB time=00:00:00.00 bitrate=N/A speed=   0x elapsed=0:00:06.41    \nframe=    1 fps=0.1 q=33.0 size=       1KiB time=00:00:00.00 bitrate=N/A speed=   0x elapsed=0:00:06.97    \nframe=    2 fps=0.3 q=44.0 size=       1KiB time=00:00:00.03 bitrate= 171.1kbits/s speed=0.00438x elapsed=0:00:07.60    \nframe=    5 fps=0.6 q=42.0 size=       1KiB time=00:00:00.13 bitrate=  42.8kbits/s speed=0.0162x elapsed=0:00:08.22    \nframe=    7 fps=0.8 q=42.0 size=       1KiB time=00:00:00.20 bitrate=  28.5kbits/s speed=0.0227x elapsed=0:00:08.81    \nframe=   10 fps=1.1 q=45.0 size=       1KiB time=00:00:00.26 bitrate=  21.4kbits/s speed=0.0284x elapsed=0:00:09.38    \nframe=   12 fps=1.2 q=45.0 size=       1KiB time=00:00:00.36 bitrate=  15.6kbits/s speed=0.0366x elapsed=0:00:10.00    \nframe=   17 fps=1.6 q=36.0 size=       1KiB time=00:00:00.50 bitrate=  11.4kbits/s speed=0.047x elapsed=0:00:10.63    \nframe=   19 fps=1.7 q=44.0 size=       1KiB time=00:00:00.60 bitrate=   9.5kbits/s speed=0.0534x elapsed=0:00:11.23    \nframe=   22 fps=1.9 q=45.0 size=       1KiB time=00:00:00.70 bitrate=   8.1kbits/s speed=0.0591x elapsed=0:00:11.84    \nframe=   23 fps=1.8 q=44.0 size=       1KiB time=00:00:00.73 bitrate=   7.8kbits/s speed=0.0588x elapsed=0:00:12.46    \nframe=   27 fps=2.1 q=43.0 size=       1KiB time=00:00:00.83 bitrate=   6.8kbits/s speed=0.0638x elapsed=0:00:13.05    \nframe=   29 fps=2.1 q=40.0 size=       1KiB time=00:00:00.93 bitrate=   6.1kbits/s speed=0.0684x elapsed=0:00:13.63    \nframe=   33 fps=2.3 q=34.0 size=       1KiB time=00:00:01.06 bitrate=   5.3kbits/s speed=0.0753x elapsed=0:00:14.16    \nframe=   36 fps=2.4 q=49.0 size=       1KiB time=00:00:01.13 bitrate=   5.0kbits/s speed=0.0769x elapsed=0:00:14.73    \nframe=   38 fps=2.5 q=49.0 size=       1KiB time=00:00:01.23 bitrate=   4.6kbits/s speed=0.0805x elapsed=0:00:15.31    \nframe=   39 fps=2.5 q=46.0 size=       1KiB time=00:00:01.26 bitrate=   4.5kbits/s speed=0.0799x elapsed=0:00:15.84    \nframe=   42 fps=2.6 q=49.0 size=       1KiB time=00:00:01.36 bitrate=   4.2kbits/s speed=0.0833x elapsed=0:00:16.40    \nframe=   45 fps=2.6 q=44.0 size=       1KiB time=00:00:01.46 bitrate=   3.9kbits/s speed=0.0863x elapsed=0:00:16.99    \nframe=   49 fps=2.8 q=35.0 size=       1KiB time=00:00:01.60 bitrate=   3.6kbits/s speed=0.0912x elapsed=0:00:17.53    \nframe=   51 fps=2.8 q=48.0 size=       1KiB time=00:00:01.66 bitrate=   3.4kbits/s speed=0.0921x elapsed=0:00:18.09    \nframe=   57 fps=3.1 q=44.0 size=       1KiB time=00:00:01.80 bitrate=   3.2kbits/s speed=0.0963x elapsed=0:00:18.68    \nframe=   57 fps=3.0 q=44.0 size=       1KiB time=00:00:01.86 bitrate=   3.1kbits/s speed=0.0969x elapsed=0:00:19.26    \nframe=   61 fps=3.1 q=45.0 size=       1KiB time=00:00:01.93 bitrate=   3.0kbits/s speed=0.0975x elapsed=0:00:19.83    \nframe=   63 fps=3.1 q=48.0 size=       1KiB time=00:00:02.06 bitrate=   2.8kbits/s speed=0.101x elapsed=0:00:20.45    \nframe=   67 fps=3.2 q=48.0 size=       1KiB time=00:00:02.13 bitrate=   2.7kbits/s speed=0.102x elapsed=0:00:20.99    \nframe=   69 fps=3.2 q=45.0 size=       1KiB time=00:00:02.26 bitrate=   2.5kbits/s speed=0.105x elapsed=0:00:21.54    \nframe=   73 fps=3.3 q=45.0 size=       1KiB time=00:00:02.40 bitrate=   2.4kbits/s speed=0.109x elapsed=0:00:22.06    \nframe=   75 fps=3.3 q=48.0 size=       1KiB time=00:00:02.46 bitrate=   2.3kbits/s speed=0.109x elapsed=0:00:22.62    \nframe=   77 fps=3.3 q=45.0 size=       1KiB time=00:00:02.53 bitrate=   2.3kbits/s speed=0.109x elapsed=0:00:23.21    \nframe=   83 fps=3.5 q=49.0 size=       1KiB time=00:00:02.66 bitrate=   2.1kbits/s speed=0.112x elapsed=0:00:23.84    \nframe=   85 fps=3.5 q=46.0 size=       1KiB time=00:00:02.80 bitrate=   2.0kbits/s speed=0.114x elapsed=0:00:24.53    \nframe=   89 fps=3.5 q=45.0 size=       1KiB time=00:00:02.93 bitrate=   1.9kbits/s speed=0.117x elapsed=0:00:25.14    \nframe=   91 fps=3.5 q=49.0 size=       1KiB time=00:00:03.00 bitrate=   1.9kbits/s speed=0.117x elapsed=0:00:25.66    \nframe=   93 fps=3.5 q=46.0 size=       1KiB time=00:00:03.06 bitrate=   1.9kbits/s speed=0.117x elapsed=0:00:26.28    \nframe=   99 fps=3.7 q=49.0 size=       1KiB time=00:00:03.26 bitrate=   1.7kbits/s speed=0.122x elapsed=0:00:26.87    \nframe=  101 fps=3.7 q=46.0 size=       1KiB time=00:00:03.33 bitrate=   1.7kbits/s speed=0.122x elapsed=0:00:27.43    \nframe=  105 fps=3.8 q=46.0 size=       1KiB time=00:00:03.46 bitrate=   1.6kbits/s speed=0.124x elapsed=0:00:27.95    \nframe=  107 fps=3.7 q=49.0 size=       1KiB time=00:00:03.53 bitrate=   1.6kbits/s speed=0.124x elapsed=0:00:28.55    \nframe=  109 fps=3.7 q=46.0 size=       1KiB time=00:00:03.60 bitrate=   1.6kbits/s speed=0.123x elapsed=0:00:29.16    \nframe=  113 fps=3.8 q=41.0 size=       1KiB time=00:00:03.73 bitrate=   1.5kbits/s speed=0.126x elapsed=0:00:29.73    \nframe=  117 fps=3.9 q=47.0 size=       1KiB time=00:00:03.86 bitrate=   1.5kbits/s speed=0.128x elapsed=0:00:30.27    \nframe=  121 fps=3.9 q=46.0 size=       1KiB time=00:00:04.00 bitrate=   1.4kbits/s speed=0.13x elapsed=0:00:30.82    \nframe=  121 fps=3.9 q=46.0 size=       1KiB time=00:00:04.00 bitrate=   1.4kbits/s speed=0.128x elapsed=0:00:31.32    \nframe=  125 fps=3.9 q=48.0 size=       1KiB time=00:00:04.13 bitrate=   1.4kbits/s speed=0.13x elapsed=0:00:31.88    \nframe=  127 fps=3.9 q=51.0 size=       1KiB time=00:00:04.20 bitrate=   1.4kbits/s speed=0.13x elapsed=0:00:32.41    \nframe=  131 fps=4.0 q=51.0 size=       1KiB time=00:00:04.33 bitrate=   1.3kbits/s speed=0.131x elapsed=0:00:33.03    \nframe=  135 fps=4.0 q=51.0 size=    5120KiB time=00:00:04.40 bitrate=9532.5kbits/s speed=0.131x elapsed=0:00:33.61    \nframe=  137 fps=4.0 q=48.0 size=    5120KiB time=00:00:04.53 bitrate=9252.1kbits/s speed=0.133x elapsed=0:00:34.19    \nframe=  139 fps=4.0 q=51.0 size=    5120KiB time=00:00:04.60 bitrate=9118.1kbits/s speed=0.132x elapsed=0:00:34.75    \nframe=  143 fps=4.1 q=51.0 size=    5120KiB time=00:00:04.73 bitrate=8861.2kbits/s speed=0.134x elapsed=0:00:35.30    \n[out#0/matroska @ 0000012486e89700] video:5687KiB audio:0KiB subtitle:0KiB other streams:0KiB global headers:0KiB muxing overhead: 0.026223%\nframe=  150 fps=4.2 q=51.0 Lsize=    5688KiB time=00:00:04.96 bitrate=9382.1kbits/s speed=0.14x elapsed=0:00:35.38    \n",
  "seconds": 36.23890829086304,
  "probe_out": {}
}